<svg id="calendar" xmlns="http://www.w3.org/2000/svg" xmlns:xlink="http://www.w3.org/1999/xlink" viewBox="0 0 395 436"><defs><style>.cls-1{fill:#f5fafc;}.cls-2{fill:#bbbbbc;}.cls-3{clip-path:url(#clip-path);}.cls-4{opacity:0.2;}.cls-5,.cls-6{fill:#49505b;}.cls-6{opacity:0.15;}.cls-7{fill:url(#linear-gradient);}</style><clipPath id="clip-path"><path id="cal-clipping-path" class="cls-1" d="M314.91,418.56l-235.1,1.18A80.05,80.05,0,0,1-.25,339.69L9.14,238V110.44a80.05,80.05,0,0,1,80.05-80H306.7a80.05,80.05,0,0,1,80.05,80.05V238L395,338.51A80.05,80.05,0,0,1,314.91,418.56Z"/></clipPath><linearGradient id="linear-gradient" x1="491.08" y1="356.79" x2="50.1" y2="-66.6" gradientUnits="userSpaceOnUse"><stop offset="0" stop-color="#0081d0"/><stop offset="0.48" stop-color="#558de6"/><stop offset="1" stop-color="#b59aff"/></linearGradient></defs><rect id="cal-shadow" class="cls-2" x="8.54" y="184.02" width="378.74" height="252.14" rx="64.54"/><g id="cal-clipping-group"><path id="cal-clipping-path-2" data-name="cal-clipping-path" class="cls-1" d="M314.91,418.56l-235.1,1.18A80.05,80.05,0,0,1-.25,339.69L9.14,238V110.44a80.05,80.05,0,0,1,80.05-80H306.7a80.05,80.05,0,0,1,80.05,80.05V238L395,338.51A80.05,80.05,0,0,1,314.91,418.56Z"/><g class="cls-3"><g id="box-group"><g id="box-row-4" class="cls-4"><path class="cls-5" d="M71,381.93H45.9A15.19,15.19,0,0,1,30.45,365.1l2.23-24.34c.82-8.92,8.84-16.08,17.93-16.08H75c9.09,0,16,7.16,15.5,16.08L89,365.1A18.21,18.21,0,0,1,71,381.93Z"/><path class="cls-5" d="M140.76,381.93H115.63A15.88,15.88,0,0,1,99.55,365.1l1.3-24.34a17.34,17.34,0,0,1,17.32-16.08h24.34a15.83,15.83,0,0,1,16.11,16.08l-.51,24.34A17.38,17.38,0,0,1,140.76,381.93Z"/><path class="cls-5" d="M209.32,381.93H184.19a16.62,16.62,0,0,1-16.72-16.83l.4-24.34a16.56,16.56,0,0,1,16.71-16.08h24.34a16.57,16.57,0,0,1,16.72,16.08L226,365.1A16.6,16.6,0,0,1,209.32,381.93Z"/></g><g id="box-row-3" class="cls-4"><path class="cls-5" d="M75.72,314.3H51.63a14.57,14.57,0,0,1-14.81-16.14L39,274.83c.78-8.55,8.48-15.42,17.19-15.42H79.49a14.52,14.52,0,0,1,14.86,15.42L93,298.16A17.45,17.45,0,0,1,75.72,314.3Z"/><path class="cls-5" d="M142.58,314.3H118.49a15.23,15.23,0,0,1-15.42-16.14l1.25-23.33a16.63,16.63,0,0,1,16.6-15.42h23.34a15.18,15.18,0,0,1,15.44,15.42l-.49,23.33A16.66,16.66,0,0,1,142.58,314.3Z"/><path class="cls-5" d="M208.31,314.3H184.22a15.93,15.93,0,0,1-16-16.14l.38-23.33a15.88,15.88,0,0,1,16-15.42h23.34a15.88,15.88,0,0,1,16,15.42l.38,23.33A15.92,15.92,0,0,1,208.31,314.3Z"/><path class="cls-5" d="M275.17,314.3H251.08a16.67,16.67,0,0,1-16.64-16.14l-.52-23.33a15.18,15.18,0,0,1,15.44-15.42H272.7a16.64,16.64,0,0,1,16.61,15.42l1.27,23.33A15.22,15.22,0,0,1,275.17,314.3Z"/><path class="cls-5" d="M340.89,314.3H316.8a17.46,17.46,0,0,1-17.24-16.14l-1.39-23.33A14.52,14.52,0,0,1,313,259.41h23.34c8.72,0,16.41,6.87,17.19,15.42l2.14,23.33A14.57,14.57,0,0,1,340.89,314.3Z"/></g><g id="box-row-2" class="cls-4"><rect class="cls-5" x="40.37" y="194.64" width="54.89" height="54.89" rx="14.37"/><rect class="cls-5" x="105.14" y="194.64" width="54.89" height="54.89" rx="14.37"/><rect class="cls-5" x="168.82" y="194.64" width="54.89" height="54.89" rx="14.37"/><rect class="cls-5" x="233.59" y="194.64" width="54.89" height="54.89" rx="14.37"/><rect class="cls-5" x="297.26" y="194.64" width="54.89" height="54.89" rx="14.37"/></g><g id="box-row-1" class="cls-4"><rect class="cls-5" x="105.14" y="130.97" width="54.89" height="54.89" rx="14.37"/><rect class="cls-5" x="168.82" y="130.97" width="54.89" height="54.89" rx="14.37"/><rect class="cls-5" x="233.59" y="130.97" width="54.89" height="54.89" rx="14.37"/><rect class="cls-5" x="297.26" y="130.97" width="54.89" height="54.89" rx="14.37"/></g></g><rect id="cal-dropshadow" class="cls-6" x="9.14" y="37.43" width="377.62" height="200.54"/><rect id="cal-header" class="cls-7" x="-8.45" y="25.7" width="403.42" height="90.3"/></g></g><g id="spiral-left-group"><rect id="spiral-left-shadow" class="cls-2" x="117.18" y="3.77" width="41.05" height="80.92" rx="16.17"/><rect id="spiral-left" class="cls-1" x="113.66" y="1.42" width="41.05" height="80.92" rx="16.17"/></g><g id="spiral-right-group"><rect id="spiral-right-shadow" class="cls-2" x="239.14" y="2.6" width="41.05" height="80.92" rx="16.17"/><rect id="spiral-right" class="cls-1" x="235.62" y="0.25" width="41.05" height="80.92" rx="16.17"/></g></svg>