<svg id="clock" xmlns="http://www.w3.org/2000/svg" xmlns:xlink="http://www.w3.org/1999/xlink" viewBox="0 0 609 609"><defs><style>.cls-1{fill:#3f3d56;}.cls-2{clip-path:url(#clip-path);}.cls-3{fill:#1b1b2d;opacity:0.3;}.cls-4{fill:url(#New_Gradient_Swatch_1);}.cls-5{fill:#6f64cf;}.cls-6{fill:#a3db95;}.cls-7{fill:#d8c573;}</style><clipPath id="clip-path"><path id="clock-clipping-path" class="cls-1" d="M304.5,0C136.33,0,0,136.33,0,304.5S136.33,609,304.5,609,609,472.67,609,304.5,472.67,0,304.5,0ZM92.67,138.41A270.78,270.78,0,0,1,144.3,88.76c19.16-14,39.58-25.67,61.86-34,1.36-.51,2.79-.85,5.51-1.67-5.17,8-9.79,14.81-14.1,21.83-12.23,20-21.45,41.31-28.73,63.49-1.27,3.88-2.87,5.51-7.27,5.46-22.16-.27-44.32-.11-66.47-.15-1.59,0-3.81.84-4.63-.75C89.49,141.14,91.62,139.71,92.67,138.41ZM286.29,283c0,3.83-2.11,3.76-4.79,3.76q-24.5-.06-49,0c-16.33,0-32.66-.11-49,.08-3.84,0-4.92-1.25-4.67-4.93,1.75-25.49,4.13-50.91,9-76,1.52-7.82,3.44-15.55,5-23.37.51-2.55,1.9-3.19,4.18-3.18q42.73,0,85.47,0c2.8,0,3.79,1,3.78,3.77Q286.18,233,286.29,283Zm0,142c0,3.73-1.09,4.83-4.82,4.81-27.82-.14-55.64-.1-83.47,0-3.09,0-4.52-.73-5.36-4.19-5.51-22.61-8.9-45.57-11.61-68.63-1.17-10-1.37-20.2-2.19-30.29-.3-3.75,1.39-4.43,4.67-4.4,16.5.12,33,.05,49.48.05,16.17,0,32.33.11,48.49-.07,3.73-.05,4.82,1.09,4.81,4.81Q286.12,376,286.31,425ZM35.71,281.75c.89-16.68,4.2-32.95,8.66-48.92a251.58,251.58,0,0,1,19.46-49.6c1.54-2.93,3.3-4,6.58-4q40.49.18,81,0c4.48,0,5.55,1.52,4.61,5.58-5.71,24.79-8.84,49.93-11,75.26-.54,6.48-.55,12.94-.88,19.41-.36,7.1-.54,7.26-7.43,7.26H89.24c-16.17,0-32.33-.11-48.49.08C36.83,286.86,35.5,285.79,35.71,281.75Zm35.76,148c-4,0-6.19-1.12-8.09-4.83C50,398.8,41.71,371.07,37.08,342.18c-.79-4.9-.74-9.93-1.33-14.87-.47-3.95.93-5.18,4.94-5.13,16.33.2,32.66.08,49,.08s32.65.1,49-.08c3.37,0,4.72,1.05,5.14,4.31,1,7.6.55,15.25,1.23,22.88,2.2,24.82,5.36,49.46,10.62,73.82,1.34,6.22,1.17,6.49-5.21,6.49C124.12,429.69,97.79,429.6,71.47,429.77ZM184.32,544.64a267.7,267.7,0,0,1-52.53-34.14,270.72,270.72,0,0,1-39.65-40.65c-.84-1.05-2.61-2.2-1.76-3.8s2.72-.8,4.13-.81c22.66,0,45.31,0,68-.1,3.44,0,4.9,1.14,6,4.4,9,27.11,20.79,52.89,36.74,76.67,1,1.52,2.21,2.92,3.16,4.47.85,1.37,2.57,2.23,2.48,4.82C201.09,553.34,192.77,548.74,184.32,544.64ZM286.24,517q0,23.22,0,46.43c0,5.74-.56,6.19-5.91,3.82-13-5.77-23.78-14.51-33.12-25.11-18.62-21.14-30.71-46-41-71.9-1.54-3.86-.95-5.12,3.5-5.09q35.7.27,71.4,0c4.29,0,5.28,1.41,5.23,5.43C286.11,486,286.24,501.5,286.24,517Zm-5-373.11q-35.7-.26-71.41,0c-4.1,0-5.35-.78-3.67-5C215.29,116,225.71,93.77,241,74.23c10.47-13.35,22.57-24.85,38.26-32,6.53-3,6.94-2.71,6.94,4.21q0,23,0,45.94c0,15.48-.13,31,.08,46.43C286.38,142.83,285.13,143.89,281.22,143.87Z"/></clipPath><linearGradient id="New_Gradient_Swatch_1" x1="601.43" y1="445.35" x2="127.29" y2="185.93" gradientUnits="userSpaceOnUse"><stop offset="0" stop-color="#0081d0"/><stop offset="1" stop-color="#b59aff"/></linearGradient></defs><g id="clock-clipping-group"><path id="clock-clipping-path-2" data-name="clock-clipping-path" class="cls-1" d="M304.5,0C136.33,0,0,136.33,0,304.5S136.33,609,304.5,609,609,472.67,609,304.5,472.67,0,304.5,0ZM92.67,138.41A270.78,270.78,0,0,1,144.3,88.76c19.16-14,39.58-25.67,61.86-34,1.36-.51,2.79-.85,5.51-1.67-5.17,8-9.79,14.81-14.1,21.83-12.23,20-21.45,41.31-28.73,63.49-1.27,3.88-2.87,5.51-7.27,5.46-22.16-.27-44.32-.11-66.47-.15-1.59,0-3.81.84-4.63-.75C89.49,141.14,91.62,139.71,92.67,138.41ZM286.29,283c0,3.83-2.11,3.76-4.79,3.76q-24.5-.06-49,0c-16.33,0-32.66-.11-49,.08-3.84,0-4.92-1.25-4.67-4.93,1.75-25.49,4.13-50.91,9-76,1.52-7.82,3.44-15.55,5-23.37.51-2.55,1.9-3.19,4.18-3.18q42.73,0,85.47,0c2.8,0,3.79,1,3.78,3.77Q286.18,233,286.29,283Zm0,142c0,3.73-1.09,4.83-4.82,4.81-27.82-.14-55.64-.1-83.47,0-3.09,0-4.52-.73-5.36-4.19-5.51-22.61-8.9-45.57-11.61-68.63-1.17-10-1.37-20.2-2.19-30.29-.3-3.75,1.39-4.43,4.67-4.4,16.5.12,33,.05,49.48.05,16.17,0,32.33.11,48.49-.07,3.73-.05,4.82,1.09,4.81,4.81Q286.12,376,286.31,425ZM35.71,281.75c.89-16.68,4.2-32.95,8.66-48.92a251.58,251.58,0,0,1,19.46-49.6c1.54-2.93,3.3-4,6.58-4q40.49.18,81,0c4.48,0,5.55,1.52,4.61,5.58-5.71,24.79-8.84,49.93-11,75.26-.54,6.48-.55,12.94-.88,19.41-.36,7.1-.54,7.26-7.43,7.26H89.24c-16.17,0-32.33-.11-48.49.08C36.83,286.86,35.5,285.79,35.71,281.75Zm35.76,148c-4,0-6.19-1.12-8.09-4.83C50,398.8,41.71,371.07,37.08,342.18c-.79-4.9-.74-9.93-1.33-14.87-.47-3.95.93-5.18,4.94-5.13,16.33.2,32.66.08,49,.08s32.65.1,49-.08c3.37,0,4.72,1.05,5.14,4.31,1,7.6.55,15.25,1.23,22.88,2.2,24.82,5.36,49.46,10.62,73.82,1.34,6.22,1.17,6.49-5.21,6.49C124.12,429.69,97.79,429.6,71.47,429.77ZM184.32,544.64a267.7,267.7,0,0,1-52.53-34.14,270.72,270.72,0,0,1-39.65-40.65c-.84-1.05-2.61-2.2-1.76-3.8s2.72-.8,4.13-.81c22.66,0,45.31,0,68-.1,3.44,0,4.9,1.14,6,4.4,9,27.11,20.79,52.89,36.74,76.67,1,1.52,2.21,2.92,3.16,4.47.85,1.37,2.57,2.23,2.48,4.82C201.09,553.34,192.77,548.74,184.32,544.64ZM286.24,517q0,23.22,0,46.43c0,5.74-.56,6.19-5.91,3.82-13-5.77-23.78-14.51-33.12-25.11-18.62-21.14-30.71-46-41-71.9-1.54-3.86-.95-5.12,3.5-5.09q35.7.27,71.4,0c4.29,0,5.28,1.41,5.23,5.43C286.11,486,286.24,501.5,286.24,517Zm-5-373.11q-35.7-.26-71.41,0c-4.1,0-5.35-.78-3.67-5C215.29,116,225.71,93.77,241,74.23c10.47-13.35,22.57-24.85,38.26-32,6.53-3,6.94-2.71,6.94,4.21q0,23,0,45.94c0,15.48-.13,31,.08,46.43C286.38,142.83,285.13,143.89,281.22,143.87Z"/><g class="cls-2"><path id="clock-outline" class="cls-3" d="M305-34V34c148.66.54,269,121.21,269,270S453.66,573.45,305,574v66H664V-34Z"/></g></g><path id="clock-hands" class="cls-4" d="M328.42,305.86l48.26-48.26a14.09,14.09,0,0,0,0-19.92L371,232A14.09,14.09,0,0,0,351,232l-47,47v53.72l82.13,82.13a14.07,14.07,0,0,0,19.91,0l5.73-5.73a14.07,14.07,0,0,0,0-19.91Z"/><rect id="rec-3" class="cls-5" x="454" y="450" width="39" height="39" rx="8.1" transform="translate(-193.3 472.33) rotate(-45)"/><rect id="rec-2" class="cls-6" x="527" y="285" width="39" height="39" rx="8.1"/><rect id="rec-1" class="cls-7" x="454" y="120" width="39" height="39" rx="8.1" transform="translate(237.33 -293.96) rotate(45)"/></svg>