<svg id="emoji" xmlns="http://www.w3.org/2000/svg" xmlns:xlink="http://www.w3.org/1999/xlink" viewBox="0 0 315 314"><defs><style>.cls-1{fill:#ffce40;}.cls-2{fill:#211a15;}.cls-3{clip-path:url(#clip-path);}.cls-4{fill:#ffa340;}.cls-5{fill:#211e15;}.cls-6{fill:#fff;}.cls-7{clip-path:url(#clip-path-2);}.cls-8{fill:#e4252f;}</style><clipPath id="clip-path"><circle id="emoji-clipping-path" class="cls-1" cx="157.55" cy="156.95" r="157.03"/></clipPath><clipPath id="clip-path-2"><path class="cls-2" d="M136.42,217.67c33.65,5.69,65.34-15.43,71.29-47.29l-123-20.82C79.79,181.6,102.76,212,136.42,217.67Z"/></clipPath></defs><g id="emoji-clipping-group"><circle id="emoji-clipping-path-2" data-name="emoji-clipping-path" class="cls-1" cx="157.55" cy="156.95" r="157.03"/><g class="cls-3"><path id="emoji-dropshadow" class="cls-4" d="M287,68.08s51.32,124.18-61.26,194.38c-97.32,60.69-169.83,14.22-169.83,14.22S162,383,276,271C370.92,177.75,287,68.08,287,68.08Z"/></g></g><g id="eye-right"><path class="cls-5" d="M254,107a33.15,33.15,0,0,0-34.47,48.88,67.15,67.15,0,0,1,17.13,5c7.55,3.26,13.89,7.37,18.08,11.42A33.16,33.16,0,0,0,254,107Z"/></g><g id="eye-right-shine-2"><circle class="cls-6" cx="258.81" cy="125.61" r="11.7"/></g><g id="eye-right-shine-1"><circle class="cls-6" cx="262.15" cy="135.08" r="8.78"/></g><g id="eye-left"><path class="cls-5" d="M57.54,75.72a33.17,33.17,0,0,0-25.9,58.88c5.4-2.27,12.9-3.8,21.22-4A61.5,61.5,0,0,1,74,133.24,33.16,33.16,0,0,0,57.54,75.72Z"/></g><g id="eye-left-shine-2"><circle class="cls-6" cx="62.3" cy="94.33" r="11.7"/></g><g id="eye-left-shine-1"><circle class="cls-6" cx="65.65" cy="103.8" r="8.78"/></g><g id="mouth-clipping-group"><path class="cls-2" d="M136.42,217.67c33.65,5.69,65.34-15.43,71.29-47.29l-123-20.82C79.79,181.6,102.76,212,136.42,217.67Z"/><g class="cls-7"><path id="tounge" class="cls-8" d="M95.56,204.51s15.27-22.83,40.57-8.65c0,0,21.26-11.09,39,2.22s11,30,11,30S113.54,264.62,95.56,204.51Z"/></g></g><g id="brow-right"><path d="M238.23,88.43a31.82,31.82,0,0,1,14.53-4.92,32.82,32.82,0,0,1,15.67,2.26A30.59,30.59,0,0,1,281,95.51a32.55,32.55,0,0,1,6.16,14.07,88.26,88.26,0,0,0-9.65-10.9,39.51,39.51,0,0,0-11.39-7.37,44.3,44.3,0,0,0-13.32-3.1A80.28,80.28,0,0,0,238.23,88.43Z"/></g><g id="brow-left"><path d="M31.85,63.92A31.89,31.89,0,0,1,43.71,54.2a33.08,33.08,0,0,1,15.47-3.4,30.74,30.74,0,0,1,15.2,4.68,32.69,32.69,0,0,1,10.72,11,88.63,88.63,0,0,0-12.88-6.81A39.33,39.33,0,0,0,59,56.79a44.68,44.68,0,0,0-13.56,1.79A81.23,81.23,0,0,0,31.85,63.92Z"/></g></svg>