<svg xmlns="http://www.w3.org/2000/svg" xmlns:xlink="http://www.w3.org/1999/xlink" viewBox="0 0 505.11 479.63"><defs><style>.a{fill:none;}.b{fill:#ffce40;}.c{fill:#211a15;}.d{fill:#bbbbbc;}.e{clip-path:url(#a);}.f{fill:#f5fafc;}.g,.i,.k{fill:#49505b;}.g{opacity:0.15;}.h{fill:url(#b);}.i,.j{opacity:0.2;}.l{clip-path:url(#c);}.m{fill:#ffa340;}.n{fill:#211e15;}.o{fill:#fff;}.p{clip-path:url(#d);}.q{fill:#e4252f;}</style><clipPath id="a" transform="translate(-67.84 -65)"><path class="a" d="M419.35,483.31l-235.11,1.18a80.05,80.05,0,0,1-80.05-80.05l9.38-101.73V175.19a80.05,80.05,0,0,1,80.05-80H411.14a80.05,80.05,0,0,1,80.05,80.05V302.71l8.21,100.55A80.05,80.05,0,0,1,419.35,483.31Z"/></clipPath><linearGradient id="b" x1="527.68" y1="356.54" x2="86.7" y2="-66.85" gradientUnits="userSpaceOnUse"><stop offset="0" stop-color="#0081d0"/><stop offset="0.48" stop-color="#558de6"/><stop offset="1" stop-color="#b59aff"/></linearGradient><clipPath id="c" transform="translate(-67.84 -65)"><circle class="b" cx="365.55" cy="368.95" r="157.03"/></clipPath><clipPath id="d" transform="translate(-67.84 -65)"><path class="c" d="M344.42,429.67c33.65,5.69,65.34-15.43,71.29-47.29l-123-20.82C287.79,393.6,310.76,424,344.42,429.67Z"/></clipPath></defs><rect class="d" x="45.14" y="183.77" width="378.74" height="252.14" rx="64.54"/><g class="e"><rect class="f" y="21.93" width="465.57" height="426.87"/><rect class="g" x="45.74" y="37.18" width="377.62" height="200.54"/><rect class="h" x="28.15" y="25.45" width="403.42" height="90.3"/><circle class="i" cx="317.52" cy="287.76" r="147.65"/></g><rect class="d" x="153.78" y="3.52" width="41.05" height="80.92" rx="16.17"/><rect class="f" x="150.26" y="1.17" width="41.05" height="80.92" rx="16.17"/><rect class="d" x="275.74" y="2.35" width="41.05" height="80.92" rx="16.17"/><rect class="f" x="272.22" width="41.05" height="80.92" rx="16.17"/><g class="j"><rect class="k" x="141.74" y="130.72" width="54.89" height="54.89" rx="14.37"/><rect class="k" x="205.42" y="130.72" width="54.89" height="54.89" rx="14.37"/><rect class="k" x="270.19" y="130.72" width="54.89" height="54.89" rx="14.37"/><rect class="k" x="333.86" y="130.72" width="54.89" height="54.89" rx="14.37"/></g><g class="j"><rect class="k" x="76.97" y="194.39" width="54.89" height="54.89" rx="14.37"/><rect class="k" x="141.74" y="194.39" width="54.89" height="54.89" rx="14.37"/><rect class="k" x="205.42" y="194.39" width="54.89" height="54.89" rx="14.37"/><rect class="k" x="270.19" y="194.39" width="54.89" height="54.89" rx="14.37"/><rect class="k" x="333.86" y="194.39" width="54.89" height="54.89" rx="14.37"/></g><g class="j"><path class="k" d="M180.16,379.05H156.07a14.57,14.57,0,0,1-14.81-16.14l2.14-23.33c.78-8.55,8.47-15.42,17.19-15.42h23.33a14.52,14.52,0,0,1,14.87,15.42l-1.39,23.33A17.46,17.46,0,0,1,180.16,379.05Z" transform="translate(-67.84 -65)"/><path class="k" d="M247,379.05H222.93a15.22,15.22,0,0,1-15.42-16.14l1.24-23.33a16.63,16.63,0,0,1,16.61-15.42h23.33a15.18,15.18,0,0,1,15.45,15.42l-.49,23.33A16.66,16.66,0,0,1,247,379.05Z" transform="translate(-67.84 -65)"/><path class="k" d="M312.74,379.05H288.65a15.92,15.92,0,0,1-16-16.14l.37-23.33a15.89,15.89,0,0,1,16-15.42h23.34a15.89,15.89,0,0,1,16,15.42l.38,23.33A15.93,15.93,0,0,1,312.74,379.05Z" transform="translate(-67.84 -65)"/><path class="k" d="M379.6,379.05H355.51a16.68,16.68,0,0,1-16.64-16.14l-.51-23.33a15.18,15.18,0,0,1,15.44-15.42h23.34a16.64,16.64,0,0,1,16.61,15.42L395,362.91A15.21,15.21,0,0,1,379.6,379.05Z" transform="translate(-67.84 -65)"/><path class="k" d="M445.33,379.05H421.24A17.45,17.45,0,0,1,404,362.91l-1.39-23.33a14.52,14.52,0,0,1,14.86-15.42h23.34c8.71,0,16.41,6.87,17.19,15.42l2.14,23.33A14.57,14.57,0,0,1,445.33,379.05Z" transform="translate(-67.84 -65)"/></g><g class="j"><path class="k" d="M175.46,446.68H150.33a15.19,15.19,0,0,1-15.44-16.83l2.23-24.34c.82-8.92,8.84-16.08,17.93-16.08h24.34c9.09,0,16,7.16,15.5,16.08l-1.44,24.34A18.21,18.21,0,0,1,175.46,446.68Z" transform="translate(-67.84 -65)"/><path class="k" d="M245.2,446.68H220.07A15.88,15.88,0,0,1,204,429.85l1.3-24.34a17.34,17.34,0,0,1,17.32-16.08H247a15.83,15.83,0,0,1,16.11,16.08l-.52,24.34A17.37,17.37,0,0,1,245.2,446.68Z" transform="translate(-67.84 -65)"/><path class="k" d="M313.75,446.68H288.63a16.61,16.61,0,0,1-16.72-16.83l.39-24.34A16.57,16.57,0,0,1,289,389.43h24.34a16.57,16.57,0,0,1,16.72,16.08l.39,24.34A16.6,16.6,0,0,1,313.75,446.68Z" transform="translate(-67.84 -65)"/></g><circle class="b" cx="297.72" cy="303.95" r="157.03"/><g class="l"><path class="m" d="M495,280.08s51.32,124.18-61.26,194.38c-97.32,60.69-169.83,14.22-169.83,14.22s114.94,134.77,252.89-14S495,280.08,495,280.08Z" transform="translate(-67.84 -65)"/></g><path class="n" d="M462,319a33.15,33.15,0,0,0-34.47,48.88,67.15,67.15,0,0,1,17.13,5c7.55,3.26,13.89,7.37,18.08,11.42A33.16,33.16,0,0,0,462,319Z" transform="translate(-67.84 -65)"/><circle class="o" cx="398.97" cy="272.61" r="11.7"/><circle class="o" cx="402.31" cy="282.08" r="8.78"/><path class="n" d="M265.54,287.72a33.17,33.17,0,0,0-25.9,58.88c5.4-2.27,12.9-3.8,21.22-4A61.5,61.5,0,0,1,282,345.24a33.16,33.16,0,0,0-16.45-57.52Z" transform="translate(-67.84 -65)"/><circle class="o" cx="202.47" cy="241.33" r="11.7"/><circle class="o" cx="205.81" cy="250.8" r="8.78"/><path class="c" d="M344.42,429.67c33.65,5.69,65.34-15.43,71.29-47.29l-123-20.82C287.79,393.6,310.76,424,344.42,429.67Z" transform="translate(-67.84 -65)"/><g class="p"><path class="q" d="M303.56,416.51s15.27-22.83,40.57-8.65c0,0,21.26-11.09,39,2.22s11,30,11,30S321.54,476.62,303.56,416.51Z" transform="translate(-67.84 -65)"/></g><path d="M446.23,300.43a31.82,31.82,0,0,1,14.53-4.92,32.82,32.82,0,0,1,15.67,2.26A30.59,30.59,0,0,1,489,307.51a32.55,32.55,0,0,1,6.16,14.07,88.26,88.26,0,0,0-9.65-10.9,39.51,39.51,0,0,0-11.39-7.37,44.3,44.3,0,0,0-13.32-3.1A80.28,80.28,0,0,0,446.23,300.43Z" transform="translate(-67.84 -65)"/><path d="M239.85,275.92a31.89,31.89,0,0,1,11.86-9.72,33.08,33.08,0,0,1,15.47-3.4,30.74,30.74,0,0,1,15.2,4.68,32.69,32.69,0,0,1,10.72,11,88.63,88.63,0,0,0-12.88-6.81A39.33,39.33,0,0,0,267,268.79a44.68,44.68,0,0,0-13.56,1.79A81.23,81.23,0,0,0,239.85,275.92Z" transform="translate(-67.84 -65)"/></svg>