<svg xmlns="http://www.w3.org/2000/svg" xmlns:xlink="http://www.w3.org/1999/xlink" viewBox="0 0 419 461"><defs><style>.cls-1{fill:#f5fafc;}.cls-2{fill:#ffce40;}.cls-3{fill:#211a15;}.cls-4{fill:#bbbbbc;}.cls-5{clip-path:url(#clip-path);}.cls-10,.cls-6{opacity:0.2;}.cls-10,.cls-7,.cls-8{fill:#49505b;}.cls-8{opacity:0.15;}.cls-9{fill:url(#linear-gradient);}.cls-11{clip-path:url(#clip-path-2);}.cls-12{fill:#ffa340;}.cls-13{fill:#211e15;}.cls-14{fill:#fff;}.cls-15{clip-path:url(#clip-path-3);}.cls-16{fill:#e4252f;}</style><clipPath id="clip-path"><path id="cal-clipping-path" class="cls-1" d="M315.35,418.31,80.24,419.49a80.05,80.05,0,0,1-80-80.05L9.57,237.71V110.19a80.05,80.05,0,0,1,80.05-80H307.14a80.05,80.05,0,0,1,80.05,80.05V237.71l8.21,100.55A80.05,80.05,0,0,1,315.35,418.31Z"/></clipPath><linearGradient id="linear-gradient" x1="491.51" y1="356.54" x2="50.53" y2="-66.85" gradientUnits="userSpaceOnUse"><stop offset="0" stop-color="#0081d0"/><stop offset="0.48" stop-color="#558de6"/><stop offset="1" stop-color="#b59aff"/></linearGradient><clipPath id="clip-path-2"><circle id="emoji-clipping-path" class="cls-2" cx="261.55" cy="303.95" r="157.03"/></clipPath><clipPath id="clip-path-3"><path class="cls-3" d="M240.42,364.67c33.65,5.69,65.34-15.43,71.29-47.29l-123-20.82C183.79,328.6,206.76,359,240.42,364.67Z"/></clipPath></defs><g id="calendar"><rect id="cal-shadow" class="cls-4" x="8.97" y="183.77" width="378.74" height="252.14" rx="64.54"/><g id="cal-clipping-group"><path id="cal-clipping-path-2" data-name="cal-clipping-path" class="cls-1" d="M315.35,418.31,80.24,419.49a80.05,80.05,0,0,1-80-80.05L9.57,237.71V110.19a80.05,80.05,0,0,1,80.05-80H307.14a80.05,80.05,0,0,1,80.05,80.05V237.71l8.21,100.55A80.05,80.05,0,0,1,315.35,418.31Z"/><g class="cls-5"><g id="box-group"><g id="box-row-4" class="cls-6"><path class="cls-7" d="M71.46,381.68H46.33a15.19,15.19,0,0,1-15.44-16.83l2.23-24.34c.82-8.92,8.84-16.08,17.93-16.08H75.39c9.09,0,16,7.16,15.5,16.08l-1.44,24.34A18.21,18.21,0,0,1,71.46,381.68Z"/><path class="cls-7" d="M141.2,381.68H116.07A15.88,15.88,0,0,1,100,364.85l1.3-24.34a17.34,17.34,0,0,1,17.32-16.08H143a15.83,15.83,0,0,1,16.11,16.08l-.52,24.34A17.37,17.37,0,0,1,141.2,381.68Z"/><path class="cls-7" d="M209.75,381.68H184.63a16.61,16.61,0,0,1-16.72-16.83l.39-24.34A16.57,16.57,0,0,1,185,324.43h24.34a16.57,16.57,0,0,1,16.72,16.08l.39,24.34A16.6,16.6,0,0,1,209.75,381.68Z"/></g><g id="box-row-3" class="cls-6"><path class="cls-7" d="M76.16,314.05H52.07a14.57,14.57,0,0,1-14.81-16.14l2.14-23.33c.78-8.55,8.47-15.42,17.19-15.42H79.92a14.52,14.52,0,0,1,14.87,15.42L93.4,297.91A17.46,17.46,0,0,1,76.16,314.05Z"/><path class="cls-7" d="M143,314.05H118.93a15.22,15.22,0,0,1-15.42-16.14l1.24-23.33a16.63,16.63,0,0,1,16.61-15.42h23.33a15.18,15.18,0,0,1,15.45,15.42l-.49,23.33A16.66,16.66,0,0,1,143,314.05Z"/><path class="cls-7" d="M208.74,314.05H184.65a15.92,15.92,0,0,1-16-16.14l.37-23.33a15.89,15.89,0,0,1,16-15.42h23.34a15.89,15.89,0,0,1,16,15.42l.38,23.33A15.93,15.93,0,0,1,208.74,314.05Z"/><path class="cls-7" d="M275.6,314.05H251.51a16.68,16.68,0,0,1-16.64-16.14l-.51-23.33a15.18,15.18,0,0,1,15.44-15.42h23.34a16.64,16.64,0,0,1,16.61,15.42L291,297.91A15.21,15.21,0,0,1,275.6,314.05Z"/><path class="cls-7" d="M341.33,314.05H317.24A17.45,17.45,0,0,1,300,297.91l-1.39-23.33a14.52,14.52,0,0,1,14.86-15.42h23.34c8.71,0,16.41,6.87,17.19,15.42l2.14,23.33A14.57,14.57,0,0,1,341.33,314.05Z"/></g><g id="box-row-2" class="cls-6"><rect class="cls-7" x="40.81" y="194.39" width="54.89" height="54.89" rx="14.37"/><rect class="cls-7" x="105.58" y="194.39" width="54.89" height="54.89" rx="14.37"/><rect class="cls-7" x="169.25" y="194.39" width="54.89" height="54.89" rx="14.37"/><rect class="cls-7" x="234.02" y="194.39" width="54.89" height="54.89" rx="14.37"/><rect class="cls-7" x="297.7" y="194.39" width="54.89" height="54.89" rx="14.37"/></g><g id="box-row-1" class="cls-6"><rect class="cls-7" x="105.58" y="130.72" width="54.89" height="54.89" rx="14.37"/><rect class="cls-7" x="169.25" y="130.72" width="54.89" height="54.89" rx="14.37"/><rect class="cls-7" x="234.02" y="130.72" width="54.89" height="54.89" rx="14.37"/><rect class="cls-7" x="297.7" y="130.72" width="54.89" height="54.89" rx="14.37"/></g></g><rect id="cal-dropshadow" class="cls-8" x="9.57" y="37.18" width="377.62" height="200.54"/><rect id="cal-header" class="cls-9" x="-8.02" y="25.45" width="403.42" height="90.3"/><circle id="emoji-shadow" class="cls-10" cx="281.36" cy="287.76" r="147.65"/></g></g><g id="spiral-left-group"><rect id="spiral-left-shadow" class="cls-4" x="117.61" y="3.52" width="41.05" height="80.92" rx="16.17"/><rect id="spiral-left" class="cls-1" x="114.1" y="1.17" width="41.05" height="80.92" rx="16.17"/></g><g id="spiral-right-group"><rect id="spiral-right-shadow" class="cls-4" x="239.58" y="2.35" width="41.05" height="80.92" rx="16.17"/><rect id="spiral-right" class="cls-1" x="236.06" width="41.05" height="80.92" rx="16.17"/></g></g><g id="emoji"><g id="emoji-clipping-group"><circle id="emoji-clipping-path-2" data-name="emoji-clipping-path" class="cls-2" cx="261.55" cy="303.95" r="157.03"/><g class="cls-11"><path id="emoji-dropshadow" class="cls-12" d="M391,215.08s51.32,124.18-61.26,194.38c-97.32,60.69-169.83,14.22-169.83,14.22S266,530,380,418C474.92,324.75,391,215.08,391,215.08Z"/></g></g><g id="eye-right"><path class="cls-13" d="M358,254a33.15,33.15,0,0,0-34.47,48.88,67.15,67.15,0,0,1,17.13,5c7.55,3.26,13.89,7.37,18.08,11.42A33.16,33.16,0,0,0,358,254Z"/></g><g id="eye-right-shine-2"><circle class="cls-14" cx="362.81" cy="272.61" r="11.7"/></g><g id="eye-right-shine-1"><circle class="cls-14" cx="366.15" cy="282.08" r="8.78"/></g><g id="eye-left"><path class="cls-13" d="M161.54,222.72a33.17,33.17,0,0,0-25.9,58.88c5.4-2.27,12.9-3.8,21.22-4A61.5,61.5,0,0,1,178,280.24a33.16,33.16,0,0,0-16.45-57.52Z"/></g><g id="eye-left-shine-2"><circle class="cls-14" cx="166.3" cy="241.33" r="11.7"/></g><g id="eye-left-shine-1"><circle class="cls-14" cx="169.65" cy="250.8" r="8.78"/></g><g id="mouth-clipping-group"><path class="cls-3" d="M240.42,364.67c33.65,5.69,65.34-15.43,71.29-47.29l-123-20.82C183.79,328.6,206.76,359,240.42,364.67Z"/><g class="cls-15"><path id="tounge" class="cls-16" d="M199.56,351.51s15.27-22.83,40.57-8.65c0,0,21.26-11.09,39,2.22s11,30,11,30S217.54,411.62,199.56,351.51Z"/></g></g><g id="brow-right"><path d="M342.23,235.43a31.82,31.82,0,0,1,14.53-4.92,32.82,32.82,0,0,1,15.67,2.26A30.59,30.59,0,0,1,385,242.51a32.55,32.55,0,0,1,6.16,14.07,88.26,88.26,0,0,0-9.65-10.9,39.51,39.51,0,0,0-11.39-7.37,44.3,44.3,0,0,0-13.32-3.1A80.28,80.28,0,0,0,342.23,235.43Z"/></g><g id="brow-left"><path d="M135.85,210.92a31.89,31.89,0,0,1,11.86-9.72,33.08,33.08,0,0,1,15.47-3.4,30.74,30.74,0,0,1,15.2,4.68,32.69,32.69,0,0,1,10.72,11,88.63,88.63,0,0,0-12.88-6.81A39.33,39.33,0,0,0,163,203.79a44.68,44.68,0,0,0-13.56,1.79A81.23,81.23,0,0,0,135.85,210.92Z"/></g></g></svg>