<svg xmlns="http://www.w3.org/2000/svg" xmlns:xlink="http://www.w3.org/1999/xlink" viewBox="0 0 396 435"><defs><style>.cls-1{fill:#3f3d56;}.cls-2{fill:#ffce40;}.cls-3{fill:#211a15;}.cls-4{fill:#ad8fda;}.cls-5{fill:#7adc76;}.cls-6{fill:#31313f;}.cls-7{clip-path:url(#clip-path);}.cls-8{fill:#5c5b72;}.cls-9{fill:#1b1b2d;opacity:0.3;}.cls-10{fill:url(#linear-gradient);}.cls-11{clip-path:url(#clip-path-2);}.cls-12{fill:#ffa340;}.cls-13{fill:#211e15;}.cls-14{fill:#fff;}.cls-15{clip-path:url(#clip-path-3);}.cls-16{fill:#e4252f;}.cls-17{clip-path:url(#clip-path-4);}.cls-18{fill:#845dc1;}.cls-19{clip-path:url(#clip-path-5);}.cls-20{fill:#56bc51;}</style><clipPath id="clip-path"><path id="cal-clipping-path" class="cls-1" d="M315.65,417.83,80.54,419A80.05,80.05,0,0,1,.49,339L9.87,237.23V109.71a80.05,80.05,0,0,1,80.05-80H307.44a80.05,80.05,0,0,1,80.05,80.05V237.23l8.21,100.55A80.05,80.05,0,0,1,315.65,417.83Z"/></clipPath><linearGradient id="linear-gradient" x1="671.32" y1="295.65" x2="-23.2" y2="-32.5" gradientUnits="userSpaceOnUse"><stop offset="0" stop-color="#0081d0"/><stop offset="1" stop-color="#b59aff"/></linearGradient><clipPath id="clip-path-2"><circle id="emoji-clipping-path" class="cls-2" cx="130.36" cy="160.52" r="28.5"/></clipPath><clipPath id="clip-path-3"><path class="cls-3" d="M126.61,171.57a11.08,11.08,0,0,0,12.87-8.68l-22.36-3.61A11.08,11.08,0,0,0,126.61,171.57Z"/></clipPath><clipPath id="clip-path-4"><circle id="emoji-clipping-path-2" data-name="emoji-clipping-path" class="cls-4" cx="66.98" cy="352.31" r="28.5"/></clipPath><clipPath id="clip-path-5"><path id="emoji-clipping-path-3" data-name="emoji-clipping-path" class="cls-5" d="M289.56,284.46c-2.25,13.89-20.61,34.87-34.51,32.63S237,290.23,239.24,276.33a25.49,25.49,0,1,1,50.32,8.13Z"/></clipPath></defs><g id="Layer_2" data-name="Layer 2"><rect class="cls-6" x="9.27" y="183.29" width="378.74" height="252.14" rx="64.54"/><g id="cal-clipping-group"><path id="cal-clipping-path-2" data-name="cal-clipping-path" class="cls-1" d="M315.65,417.83,80.54,419A80.05,80.05,0,0,1,.49,339L9.87,237.23V109.71a80.05,80.05,0,0,1,80.05-80H307.44a80.05,80.05,0,0,1,80.05,80.05V237.23l8.21,100.55A80.05,80.05,0,0,1,315.65,417.83Z"/><g class="cls-7"><g id="box-group"><g id="box-row-4"><path class="cls-8" d="M71.76,381.2H46.63a15.19,15.19,0,0,1-15.44-16.83L33.41,340c.82-8.92,8.85-16.09,17.93-16.09H75.69A15.15,15.15,0,0,1,91.19,340l-1.45,24.34A18.21,18.21,0,0,1,71.76,381.2Z"/><path class="cls-8" d="M141.5,381.2H116.37a15.9,15.9,0,0,1-16.09-16.83L101.59,340a17.34,17.34,0,0,1,17.31-16.09h24.35A15.85,15.85,0,0,1,159.36,340l-.52,24.34A17.38,17.38,0,0,1,141.5,381.2Z"/><path class="cls-8" d="M210.05,381.2H184.92a16.61,16.61,0,0,1-16.71-16.83L168.6,340a16.58,16.58,0,0,1,16.72-16.09h24.34A16.57,16.57,0,0,1,226.37,340l.4,24.34A16.62,16.62,0,0,1,210.05,381.2Z"/></g><g id="box-row-3"><path class="cls-8" d="M76.45,313.57H52.36a14.56,14.56,0,0,1-14.8-16.14l2.13-23.33a17.44,17.44,0,0,1,17.19-15.42H80.22A14.52,14.52,0,0,1,95.08,274.1L93.7,297.43A17.46,17.46,0,0,1,76.45,313.57Z"/><path class="cls-8" d="M143.31,313.57H119.22a15.23,15.23,0,0,1-15.42-16.14l1.25-23.33a16.63,16.63,0,0,1,16.6-15.42H145a15.19,15.19,0,0,1,15.45,15.42l-.5,23.33A16.66,16.66,0,0,1,143.31,313.57Z"/><path class="cls-8" d="M209,313.57H185a15.93,15.93,0,0,1-16-16.14l.38-23.33a15.89,15.89,0,0,1,16-15.42h23.33a15.89,15.89,0,0,1,16,15.42l.38,23.33A15.93,15.93,0,0,1,209,313.57Z"/><path class="cls-8" d="M275.9,313.57H251.81a16.68,16.68,0,0,1-16.64-16.14l-.51-23.33a15.17,15.17,0,0,1,15.44-15.42h23.33a16.65,16.65,0,0,1,16.62,15.42l1.26,23.33A15.22,15.22,0,0,1,275.9,313.57Z"/><path class="cls-8" d="M341.63,313.57H317.54a17.46,17.46,0,0,1-17.25-16.14l-1.38-23.33a14.52,14.52,0,0,1,14.86-15.42h23.34A17.44,17.44,0,0,1,354.3,274.1l2.13,23.33A14.56,14.56,0,0,1,341.63,313.57Z"/></g><g id="box-row-2"><rect class="cls-8" x="41.11" y="193.91" width="54.89" height="54.89" rx="14.37"/><rect class="cls-8" x="105.88" y="193.91" width="54.89" height="54.89" rx="14.37"/><rect class="cls-8" x="169.55" y="193.91" width="54.89" height="54.89" rx="14.37"/><rect class="cls-8" x="234.32" y="193.91" width="54.89" height="54.89" rx="14.37"/><rect class="cls-8" x="297.99" y="193.91" width="54.89" height="54.89" rx="14.37"/></g><g id="box-row-1"><rect class="cls-8" x="105.88" y="130.23" width="54.89" height="54.89" rx="14.37"/><rect class="cls-8" x="169.55" y="130.23" width="54.89" height="54.89" rx="14.37"/><rect class="cls-8" x="234.32" y="130.23" width="54.89" height="54.89" rx="14.37"/><rect class="cls-8" x="297.99" y="130.23" width="54.89" height="54.89" rx="14.37"/></g></g><rect id="cal-dropshadow" class="cls-9" x="9.87" y="36.7" width="377.62" height="200.54"/><rect id="cal-header" class="cls-10" x="-7.72" y="24.97" width="403.42" height="90.3"/></g></g><g id="spiral-left-group"><rect id="spiral-left-shadow" class="cls-6" x="117.91" y="3.04" width="41.05" height="80.92" rx="16.17"/><rect id="spiral-left" class="cls-1" x="114.39" y="0.69" width="41.05" height="80.92" rx="16.17"/></g><g id="spiral-right-group"><rect id="spiral-right-shadow" class="cls-6" x="239.87" y="1.86" width="41.05" height="80.92" rx="16.17"/><rect id="spiral-right" class="cls-1" x="236.36" y="-0.48" width="41.05" height="80.92" rx="16.17"/></g></g><g id="emoji-happy"><g id="emoji-clipping-group"><circle id="emoji-clipping-path-4" data-name="emoji-clipping-path" class="cls-2" cx="130.36" cy="160.52" r="28.5"/><g class="cls-11"><path id="emoji-shadow" class="cls-12" d="M153.73,144.22s9.49,22.46-10.85,35.36c-17.58,11.15-30.8,2.81-30.8,2.81s21,24.3,45.88-2.89S153.73,144.22,153.73,144.22Z"/></g></g><g id="eye-right"><path class="cls-13" d="M147.8,151.32a6,6,0,0,0-6.19,8.92,12.17,12.17,0,0,1,3.12.88,11.34,11.34,0,0,1,3.3,2,6,6,0,0,0-.23-11.85Z"/></g><g id="eye-right-shine-2"><circle class="cls-14" cx="148.69" cy="154.7" r="2.12"/></g><g id="eye-right-shine-1"><circle class="cls-14" cx="149.31" cy="156.41" r="1.59"/></g><g id="eye-left"><path class="cls-13" d="M112.1,145.92a6,6,0,0,0-4.62,10.72,10.92,10.92,0,0,1,3.84-.76,11.22,11.22,0,0,1,3.84.45,6,6,0,0,0-3.06-10.41Z"/></g><g id="eye-left-shine-2"><circle class="cls-14" cx="112.99" cy="149.29" r="2.12"/></g><g id="eye-left-shine-1"><circle class="cls-14" cx="113.61" cy="151" r="1.59"/></g><g id="mouth-clipping-group"><path class="cls-3" d="M126.61,171.57a11.08,11.08,0,0,0,12.87-8.68l-22.36-3.61A11.08,11.08,0,0,0,126.61,171.57Z"/><g class="cls-15"><path id="tounge" class="cls-16" d="M119.17,169.24a5.46,5.46,0,0,1,7.35-1.63s3.85-2,7.08.35,2,5.43,2,5.43S122.52,180.12,119.17,169.24Z"/></g></g></g><g id="emoji-devil"><path id="horn-right" class="cls-4" d="M81.87,331.61s4.64-5.42-.9-20.12a33.77,33.77,0,0,1-10.45,15.34"/><path id="horn-left" class="cls-4" d="M43.27,340.87s-6.77-2.24-9.63-17.68a33.81,33.81,0,0,0,16.88,7.72"/><g id="emoji-clipping-group-2" data-name="emoji-clipping-group"><circle id="emoji-clipping-path-5" data-name="emoji-clipping-path" class="cls-4" cx="66.98" cy="352.31" r="28.5"/><g class="cls-17"><path id="emoji-shadow-2" data-name="emoji-shadow" class="cls-18" d="M83.28,328.93s16.67,17.8,2,36.93c-12.64,16.54-27.93,13.3-27.93,13.3s28.16,15.52,42.05-18.58S83.28,328.93,83.28,328.93Z"/></g></g><path id="eye-right-2" data-name="eye-right" class="cls-13" d="M75.54,343.48a6,6,0,1,0,7.52-5.82,5.67,5.67,0,0,0-1.57-.19Z"/><g id="eye-right-shine-1-2" data-name="eye-right-shine-1"><circle class="cls-14" cx="83.35" cy="341.9" r="1.59"/></g><path id="eye-left-2" data-name="eye-left" class="cls-13" d="M43.74,345.76a6,6,0,1,0,8.75,3.72A5.88,5.88,0,0,0,51.9,348Z"/><g id="eye-left-shine-1-2" data-name="eye-left-shine-1"><circle class="cls-14" cx="49.44" cy="350.86" r="1.59"/></g><g id="mouth"><path class="cls-13" d="M55,357.36c2.6.6,4.76,1.2,6.7,1.52a12.16,12.16,0,0,0,4.79,0,11.68,11.68,0,0,0,4.31-2.1c1.65-1.12,3.33-2.66,5.54-4.21l.37.16a21.9,21.9,0,0,1-3.46,6.11,11,11,0,0,1-5.87,3.94,11,11,0,0,1-7-1,18.37,18.37,0,0,1-5.67-4.16Z"/></g></g><g id="emoji-alien"><g id="emoji-clipping-group-3" data-name="emoji-clipping-group"><path id="emoji-clipping-path-6" data-name="emoji-clipping-path" class="cls-5" d="M289.56,284.46c-2.25,13.89-20.61,34.87-34.51,32.63S237,290.23,239.24,276.33a25.49,25.49,0,1,1,50.32,8.13Z"/><g class="cls-19"><path id="emoji-shadow-3" data-name="emoji-shadow" class="cls-20" d="M284.66,264.86s6.18,23.55-9.71,38.08c-19.87,18.15-29.81,8-29.81,8s18.82,21.73,41-2.58S284.66,264.86,284.66,264.86Z"/></g></g><ellipse id="eye-right-3" data-name="eye-right" class="cls-13" cx="278.54" cy="278.86" rx="7" ry="5" transform="translate(-89.62 419.59) rotate(-65.95)"/><g id="eye-right-shine-2-2" data-name="eye-right-shine-2"><circle class="cls-14" cx="280.79" cy="275.18" r="1.9"/></g><g id="eye-right-shine-1-3" data-name="eye-right-shine-1"><circle class="cls-14" cx="281.35" cy="276.72" r="1.42"/></g><ellipse id="eye-left-3" data-name="eye-left" class="cls-13" cx="247.73" cy="274.14" rx="5" ry="7" transform="translate(-2.07 1.88) rotate(-0.43)"/><g id="eye-left-shine-2-2" data-name="eye-left-shine-2"><circle class="cls-14" cx="248.86" cy="270.35" r="1.9"/></g><g id="eye-left-shine-1-3" data-name="eye-left-shine-1"><circle class="cls-14" cx="249.42" cy="271.88" r="1.42"/></g><g id="mouth-2" data-name="mouth"><path class="cls-13" d="M249.9,295.33a10.65,10.65,0,0,1,4.51-1.71,11.41,11.41,0,0,1,7.81,1.8,10.79,10.79,0,0,1,3.31,3.5l-.09.38c-1.32-.22-2.63-.47-3.94-.76l-3.92-.83-3.89-1c-1.3-.31-2.59-.65-3.88-1Z"/></g></g></svg>