<svg xmlns="http://www.w3.org/2000/svg" xmlns:xlink="http://www.w3.org/1999/xlink" viewBox="0 0 479 377"><defs><style>.cls-1{fill:#3f3d56;}.cls-2{fill:#7adc76;}.cls-3{fill:#ad8fda;}.cls-4{fill:#ffce40;}.cls-5{fill:#211a15;}.cls-6{clip-path:url(#clip-path);}.cls-7{fill:#29293f;}.cls-8{fill:url(#New_Gradient_Swatch_1);}.cls-9{fill:#5c5b72;}.cls-10{fill:#d8c573;}.cls-11{fill:#a3db95;}.cls-12{fill:#6f64cf;}.cls-13{clip-path:url(#clip-path-2);}.cls-14{fill:#56bc51;}.cls-15{fill:#211e15;}.cls-16{fill:#fff;}.cls-17{clip-path:url(#clip-path-3);}.cls-18{fill:#845dc1;}.cls-19{clip-path:url(#clip-path-4);}.cls-20{fill:#ffa340;}.cls-21{clip-path:url(#clip-path-5);}.cls-22{fill:#e4252f;}</style><clipPath id="clip-path"><rect id="window-clipping-path" class="cls-1" width="479" height="376.58" rx="46.26"/></clipPath><linearGradient id="New_Gradient_Swatch_1" x1="564.96" y1="197.71" x2="32.08" y2="-60.18" gradientUnits="userSpaceOnUse"><stop offset="0" stop-color="#0081d0"/><stop offset="1" stop-color="#b59aff"/></linearGradient><clipPath id="clip-path-2"><path id="emoji-clipping-path" class="cls-2" d="M172.48,201.2c.1,14.07-14.52,37.82-28.59,37.92s-22.28-23.48-22.38-37.56a25.49,25.49,0,0,1,51-.36Z"/></clipPath><clipPath id="clip-path-3"><circle id="emoji-clipping-path-2" data-name="emoji-clipping-path" class="cls-3" cx="146.37" cy="304.37" r="28.5"/></clipPath><clipPath id="clip-path-4"><circle id="emoji-clipping-path-3" data-name="emoji-clipping-path" class="cls-4" cx="146.33" cy="114.01" r="28.5"/></clipPath><clipPath id="clip-path-5"><path class="cls-5" d="M143.6,125.35a11.07,11.07,0,0,0,12-9.8L133,114A11.08,11.08,0,0,0,143.6,125.35Z"/></clipPath></defs><g id="window"><g id="window-clipping-group"><rect id="window-clipping-path-2" data-name="window-clipping-path" class="cls-1" width="479" height="376.58" rx="46.26"/><g class="cls-6"><rect id="window-sidebar" class="cls-7" x="-22" y="-13" width="111" height="410"/><rect id="window-header" class="cls-8" x="-91" y="-10" width="592" height="67"/></g></g><circle id="circle-3" class="cls-1" cx="442.5" cy="29.5" r="12.5"/><circle id="circle-2" class="cls-1" cx="408.5" cy="29.5" r="12.5"/><circle id="circle-1" class="cls-1" cx="374.5" cy="29.5" r="12.5"/><rect id="square-3" class="cls-9" x="106" y="260" width="80" height="80" rx="15.32"/><rect id="square-2" class="cls-9" x="106" y="167" width="80" height="80" rx="15.32"/><rect id="square-1" class="cls-9" x="106" y="74" width="80" height="80" rx="15.32"/><rect id="line-yellow-2" class="cls-10" x="200" y="114" width="247" height="12" rx="3.73"/><rect id="line-yellow-1" class="cls-10" x="200" y="92" width="247" height="12" rx="3.73"/><rect id="line-green-2" class="cls-11" x="200" y="203" width="247" height="12" rx="3.73"/><rect id="line-green-1" class="cls-11" x="200" y="181" width="247" height="12" rx="3.73"/><rect id="line-purple-2" class="cls-12" x="200" y="297" width="247" height="12" rx="3.73"/><rect id="line-purple-1" class="cls-12" x="200" y="275" width="247" height="12" rx="3.73"/></g><g id="emoji-alien"><g id="emoji-clipping-group"><path id="emoji-clipping-path-4" data-name="emoji-clipping-path" class="cls-2" d="M172.48,201.2c.1,14.07-14.52,37.82-28.59,37.92s-22.28-23.48-22.38-37.56a25.49,25.49,0,0,1,51-.36Z"/><g class="cls-13"><path id="emoji-shadow" class="cls-14" d="M164.39,182.69s10,22.2-3.24,39.16c-16.57,21.21-28.06,12.89-28.06,12.89s22.18,18.29,40-9.38S164.39,182.69,164.39,182.69Z"/></g></g><ellipse id="eye-right" class="cls-15" cx="160.68" cy="199.52" rx="7" ry="5" transform="translate(-72.64 305.27) rotate(-75.54)"/><g id="eye-right-shine-2"><circle class="cls-16" cx="162.29" cy="195.51" r="1.9"/></g><g id="eye-right-shine-1"><circle class="cls-16" cx="163.1" cy="196.93" r="1.42"/></g><ellipse id="eye-left" class="cls-15" cx="129.52" cy="197.99" rx="5" ry="7" transform="translate(-32.47 25.55) rotate(-10.02)"/><g id="eye-left-shine-2"><circle class="cls-16" cx="130.01" cy="194.06" r="1.9"/></g><g id="eye-left-shine-1"><circle class="cls-16" cx="130.81" cy="195.48" r="1.42"/></g><g id="mouth"><path class="cls-15" d="M135.19,218.53a10.46,10.46,0,0,1,4.16-2.44,11,11,0,0,1,4-.49,11.59,11.59,0,0,1,4,1,10.69,10.69,0,0,1,3.84,2.89l0,.4c-1.34,0-2.67,0-4-.1l-4-.16-4-.3c-1.33-.08-2.66-.21-4-.36Z"/></g></g><g id="emoji-devil"><path id="horn-right" class="cls-3" d="M165.28,287.25s5.67-4.32,3.34-19.85a33.82,33.82,0,0,1-13.44,12.8"/><path id="horn-left" class="cls-3" d="M125.59,288.21s-6.15-3.61-5.7-19.31A33.67,33.67,0,0,0,134.77,280"/><g id="emoji-clipping-group-2" data-name="emoji-clipping-group"><circle id="emoji-clipping-path-5" data-name="emoji-clipping-path" class="cls-3" cx="146.37" cy="304.37" r="28.5"/><g class="cls-17"><path id="emoji-shadow-2" data-name="emoji-shadow" class="cls-18" d="M167.21,284.93s12.56,20.9-5.75,36.54c-15.83,13.52-30.1,7.13-30.1,7.13s24.27,21.09,45-9.33S167.21,284.93,167.21,284.93Z"/></g></g><path id="eye-right-2" data-name="eye-right" class="cls-15" d="M156.59,297.53a6,6,0,1,0,7.09-4.63Z"/><g id="eye-right-shine-1-2" data-name="eye-right-shine-1"><circle class="cls-16" cx="164.56" cy="297.63" r="1.59"/></g><path id="eye-left-2" data-name="eye-left" class="cls-15" d="M125,293.09a6,6,0,1,0,7.78,5.47,5.67,5.67,0,0,0-.28-1.55Z"/><g id="eye-left-shine-1-2" data-name="eye-left-shine-1"><circle class="cls-16" cx="129.53" cy="299.27" r="1.59"/></g><g id="mouth-2" data-name="mouth"><path class="cls-15" d="M133.62,306.8c2.41,1.12,4.4,2.17,6.23,2.89a12.2,12.2,0,0,0,4.67,1,11.9,11.9,0,0,0,4.67-1.14c1.84-.75,3.81-1.91,6.3-3l.32.24a22.14,22.14,0,0,1-4.66,5.24,9.89,9.89,0,0,1-13.21.18,18.6,18.6,0,0,1-4.67-5.25Z"/></g></g><g id="emoji-happy"><g id="emoji-clipping-group-3" data-name="emoji-clipping-group"><circle id="emoji-clipping-path-6" data-name="emoji-clipping-path" class="cls-4" cx="146.33" cy="114.01" r="28.5"/><g class="cls-19"><path id="emoji-shadow-3" data-name="emoji-shadow" class="cls-20" d="M168.14,95.66s11.48,21.51-7.61,36.2c-16.5,12.69-30.42,5.58-30.42,5.58s23.15,22.3,45.43-7S168.14,95.66,168.14,95.66Z"/></g></g><g id="eye-right-3" data-name="eye-right"><path class="cls-15" d="M162.87,103.27a6,6,0,0,0-6.42,5.59,6,6,0,0,0,1.07,3.85,12.24,12.24,0,0,1,3.18.6,11.12,11.12,0,0,1,3.47,1.74,6,6,0,0,0-1.3-11.78Z"/></g><g id="eye-right-shine-2-2" data-name="eye-right-shine-2"><circle class="cls-16" cx="164.07" cy="106.55" r="2.12"/></g><g id="eye-right-shine-1-3" data-name="eye-right-shine-1"><circle class="cls-16" cx="164.84" cy="108.2" r="1.59"/></g><g id="eye-left-3" data-name="eye-left"><path class="cls-15" d="M126.82,101.12a6,6,0,0,0-3.63,11.09,12.6,12.6,0,0,1,7.63-1,6,6,0,0,0-4-10.09Z"/></g><g id="eye-left-shine-2-2" data-name="eye-left-shine-2"><circle class="cls-16" cx="128.01" cy="104.4" r="2.12"/></g><g id="eye-left-shine-1-3" data-name="eye-left-shine-1"><circle class="cls-16" cx="128.79" cy="106.05" r="1.59"/></g><g id="mouth-clipping-group"><path class="cls-5" d="M143.6,125.35a11.07,11.07,0,0,0,12-9.8L133,114A11.08,11.08,0,0,0,143.6,125.35Z"/><g class="cls-21"><path id="tounge" class="cls-22" d="M136,123.7a5.46,5.46,0,0,1,7.18-2.28s3.64-2.38,7.08-.29,2.51,5.22,2.51,5.22S140.3,134.24,136,123.7Z"/></g></g></g></svg>